# xmcd CD database file
#
# Track frame offsets:
#	150
#	11912
#	29609
#	47821
#	62216
#	82030
#	102583
#	121297
#	136528
#	155681
#	172625
#	191067
#	207106
#	221508
#	235172
#	250138
#
# Disc length: 3518 seconds
#
# Revision: 0
# Processed by: cddbd v1.4PL0 Copyright (c) Steve Scherf et al.
# Submitted via: CDex 1.50beta10
#
DISCID=de0dbc10
DTITLE=Especial Sertanejo - Vol 37
DYEAR=2002
DGENRE=Country
TTITLE0=Bruno and Marrone - Tá liberado
TTITLE1=Chrytian and Ralf - Último adeus
TTITLE2=Zeze Di Camargo and Luciano - Sou assim
TTITLE3=Chitãozinho and Xororó - Uma vez por mês
TTITLE4=Daniel - O mais importante verdadeiro amor
TTITLE5=Cleyton and Camargo - Me esqueça
TTITLE6=Bruno and Marrone - Agora vai
TTITLE7=Chrytian and Ralf - escravo do amor
TTITLE8=André and Adriano - Tá legal
TTITLE9=Gian and Giovani - Pra conhecer uma mulher
TTITLE10=Lucas and Luan - Pouco a pouco
TTITLE11=Emílio and Eduardo - Peão de caminhoneiro
TTITLE12=Chitãozinho and Xororó - Pedaço de minha vida
TTITLE13=Bruno and Marrone - Cruz credo, ave maria
TTITLE14=Chrytian and Ralf - Telefone mudo
TTITLE15=Andre and Adriano - Onde tem fumaça tem fogo
EXTD=YEAR: 2002
EXTT0=
EXTT1=
EXTT2=
EXTT3=
EXTT4=
EXTT5=
EXTT6=
EXTT7=
EXTT8=
EXTT9=
EXTT10=
EXTT11=
EXTT12=
EXTT13=
EXTT14=
EXTT15=
PLAYORDER=
